<?xml version="1.0" standalone="no"?><!DOCTYPE svg PUBLIC "-//W3C//DTD SVG 1.1//EN" "http://www.w3.org/Graphics/SVG/1.1/DTD/svg11.dtd"><svg t="1752551457630" class="icon" viewBox="0 0 1024 1024" version="1.1" xmlns="http://www.w3.org/2000/svg" p-id="24529" xmlns:xlink="http://www.w3.org/1999/xlink" width="200" height="200"><path d="M930.702222 737.28l-193.422222 193.422222c-124.017778 124.017778-326.542222 124.017778-450.56 0l-193.422222-193.422222c-124.017778-124.017778-124.017778-326.542222 0-450.56l193.422222-193.422222c124.017778-124.017778 326.542222-124.017778 450.56 0l193.422222 193.422222c124.017778 124.017778 124.017778 326.542222 0 450.56z" fill="#45D8AB" opacity=".4" p-id="24530"></path><path d="M648.533333 967.111111H375.466667C200.248889 967.111111 56.888889 823.751111 56.888889 648.533333V375.466667C56.888889 200.248889 200.248889 56.888889 375.466667 56.888889h273.066666c175.217778 0 318.577778 143.36 318.577778 318.577778v273.066666c0 175.217778-143.36 318.577778-318.577778 318.577778z" fill="#45D8AB" p-id="24531"></path><path d="M764.586667 585.955556l-19.342223-19.342223c-10.24-9.102222-14.791111-22.755556-14.791111-37.546666 1.137778-13.653333 1.137778-26.168889 0-39.822223-1.137778-13.653333 4.551111-27.306667 13.653334-36.408888l19.342222-19.342223c14.791111-14.791111 18.204444-38.684444 6.826667-58.026666l-11.377778-20.48c-11.377778-18.204444-32.995556-27.306667-53.475556-22.755556l-29.582222 6.826667c-13.653333 3.413333-28.444444 1.137778-39.822222-7.964445-4.551111-3.413333-10.24-6.826667-15.928889-10.24-5.688889-3.413333-10.24-5.688889-15.928889-7.964444-13.653333-5.688889-22.755556-17.066667-27.306667-30.72l-6.826666-26.168889c-5.688889-21.617778-26.168889-36.408889-48.924445-35.271111h-23.893333c-20.48 0-39.822222 13.653333-45.511111 34.133333l-7.964445 30.72c-3.413333 12.515556-12.515556 22.755556-23.893333 29.582222-12.515556 5.688889-23.893333 12.515556-34.133333 19.342223-11.377778 7.964444-25.031111 10.24-38.684445 7.964444l-28.444444-6.826667c-21.617778-4.551111-43.235556 4.551111-53.475556 23.893334l-12.515555 21.617778c-10.24 18.204444-7.964444 42.097778 7.964444 56.888888l19.342222 19.342223c10.24 9.102222 14.791111 22.755556 14.791111 37.546666-1.137778 13.653333-1.137778 26.168889 0 39.822223 1.137778 13.653333-4.551111 27.306667-13.653333 36.408888L260.551111 591.644444c-14.791111 14.791111-18.204444 38.684444-6.826667 58.026667l11.377778 20.48c11.377778 18.204444 32.995556 27.306667 53.475556 22.755556l29.582222-6.826667c13.653333-3.413333 28.444444-1.137778 39.822222 7.964444 4.551111 3.413333 10.24 6.826667 15.928889 10.24 5.688889 3.413333 10.24 5.688889 15.928889 7.964445 13.653333 5.688889 22.755556 17.066667 27.306667 30.72l6.826666 26.168889c5.688889 21.617778 26.168889 36.408889 48.924445 35.271111h23.893333c20.48 0 39.822222-13.653333 45.511111-34.133333l9.102222-29.582223c3.413333-12.515556 12.515556-22.755556 23.893334-29.582222 12.515556-5.688889 23.893333-12.515556 34.133333-19.342222 11.377778-7.964444 25.031111-10.24 38.684445-7.964445l28.444444 6.826667c21.617778 4.551111 43.235556-4.551111 53.475556-23.893333l12.515555-21.617778c10.24-20.48 6.826667-44.373333-7.964444-59.164444zM512 607.573333c-53.475556-1.137778-95.573333-44.373333-94.435556-96.711111 1.137778-53.475556 44.373333-95.573333 96.711112-94.435555 52.337778 1.137778 94.435556 43.235556 94.435555 95.573333 0 53.475556-43.235556 95.573333-96.711111 95.573333z" fill="#FFFFFF" p-id="24532"></path></svg>