<?xml version="1.0" standalone="no"?><!DOCTYPE svg PUBLIC "-//W3C//DTD SVG 1.1//EN" "http://www.w3.org/Graphics/SVG/1.1/DTD/svg11.dtd"><svg t="1753083949470" class="icon" viewBox="0 0 1024 1024" version="1.1" xmlns="http://www.w3.org/2000/svg" p-id="12087" xmlns:xlink="http://www.w3.org/1999/xlink" width="200" height="200"><path d="M234.688 944h554.624q33.152 0 56.576-23.424t23.424-56.576V529.92h51.776q38.528 0 52.288-36.032 13.76-36.032-15.04-61.696L568.704 84.416q-22.656-20.16-52.928-20.288-30.336-0.128-53.12 19.84L66.688 431.936q-29.056 25.6-15.36 61.824 13.632 36.288 52.352 36.288h51.008V864q0 33.152 23.424 56.576t56.576 23.424z m405.312-64V704q0-33.152-23.424-56.576T560 624h-96q-33.152 0-56.576 23.424T384 704v176H234.688q-6.656 0-11.328-4.672t-4.672-11.328V505.984q0-40-40-40h-53.76l379.968-333.888q10.624-9.344 21.184 0.064l374.016 333.824h-54.784q-40 0-40 40V864q0 16-16 16H640zM576 704v176H448V704q0-6.656 4.672-11.328t11.328-4.672h96q6.656 0 11.328 4.672T576 704z" fill="#ffffff" p-id="12088"></path></svg>